<svg width="51" height="44" viewBox="0 0 51 44" fill="none" xmlns="http://www.w3.org/2000/svg">
<path d="M41.4375 5.5H36.6562V4.125C36.6562 3.76033 36.4883 3.41059 36.1895 3.15273C35.8906 2.89487 35.4852 2.75 35.0625 2.75C34.6398 2.75 34.2344 2.89487 33.9355 3.15273C33.6367 3.41059 33.4688 3.76033 33.4688 4.125V5.5H17.5312V4.125C17.5312 3.76033 17.3633 3.41059 17.0645 3.15273C16.7656 2.89487 16.3602 2.75 15.9375 2.75C15.5148 2.75 15.1094 2.89487 14.8105 3.15273C14.5117 3.41059 14.3438 3.76033 14.3438 4.125V5.5H9.5625C8.71712 5.5 7.90637 5.78973 7.3086 6.30546C6.71082 6.82118 6.375 7.52065 6.375 8.25V35.75C6.375 36.4793 6.71082 37.1788 7.3086 37.6945C7.90637 38.2103 8.71712 38.5 9.5625 38.5H41.4375C42.2829 38.5 43.0936 38.2103 43.6914 37.6945C44.2892 37.1788 44.625 36.4793 44.625 35.75V8.25C44.625 7.52065 44.2892 6.82118 43.6914 6.30546C43.0936 5.78973 42.2829 5.5 41.4375 5.5ZM14.3438 8.25V9.625C14.3438 9.98967 14.5117 10.3394 14.8105 10.5973C15.1094 10.8551 15.5148 11 15.9375 11C16.3602 11 16.7656 10.8551 17.0645 10.5973C17.3633 10.3394 17.5312 9.98967 17.5312 9.625V8.25H33.4688V9.625C33.4688 9.98967 33.6367 10.3394 33.9355 10.5973C34.2344 10.8551 34.6398 11 35.0625 11C35.4852 11 35.8906 10.8551 36.1895 10.5973C36.4883 10.3394 36.6562 9.98967 36.6562 9.625V8.25H41.4375V13.75H9.5625V8.25H14.3438ZM41.4375 35.75H9.5625V16.5H41.4375V35.75ZM22.3125 20.625V31.625C22.3125 31.9897 22.1446 32.3394 21.8457 32.5973C21.5468 32.8551 21.1414 33 20.7188 33C20.2961 33 19.8907 32.8551 19.5918 32.5973C19.2929 32.3394 19.125 31.9897 19.125 31.625V22.8491L18.2445 23.2306C17.8661 23.3938 17.4282 23.4207 17.0269 23.3053C16.6257 23.1899 16.294 22.9417 16.1048 22.6153C15.9157 22.2889 15.8846 21.9111 16.0183 21.5649C16.1521 21.2187 16.4397 20.9326 16.818 20.7694L20.0055 19.3944C20.2486 19.2894 20.5188 19.2399 20.7903 19.2504C21.0618 19.2609 21.3257 19.3312 21.5569 19.4545C21.7881 19.5778 21.9789 19.7501 22.1111 19.955C22.2434 20.1599 22.3127 20.3905 22.3125 20.625ZM34.0983 25.8586L30.2812 30.25H33.4688C33.8914 30.25 34.2968 30.3949 34.5957 30.6527C34.8946 30.9106 35.0625 31.2603 35.0625 31.625C35.0625 31.9897 34.8946 32.3394 34.5957 32.5973C34.2968 32.8551 33.8914 33 33.4688 33H27.0938C26.7978 33 26.5076 32.9289 26.2559 32.7946C26.0041 32.6604 25.8006 32.4683 25.6683 32.2399C25.5359 32.0115 25.4799 31.7558 25.5064 31.5015C25.533 31.2472 25.6412 31.0043 25.8188 30.8L31.5523 24.2052C31.6827 24.0554 31.7762 23.8842 31.8272 23.7021C31.8782 23.52 31.8855 23.3308 31.8486 23.1462C31.8118 22.9615 31.7317 22.7854 31.6131 22.6284C31.4945 22.4715 31.34 22.3371 31.159 22.2336C30.9781 22.13 30.7745 22.0594 30.5608 22.0262C30.3471 21.9929 30.1278 21.9977 29.9163 22.0402C29.7049 22.0827 29.5057 22.1621 29.331 22.2734C29.1564 22.3847 29.0099 22.5256 28.9007 22.6875C28.7991 22.8489 28.6611 22.991 28.4948 23.1056C28.3285 23.2202 28.1373 23.305 27.9325 23.3548C27.7277 23.4046 27.5133 23.4185 27.3021 23.3957C27.091 23.3729 26.8872 23.3138 26.7029 23.222C26.5186 23.1302 26.3575 23.0074 26.2291 22.861C26.1007 22.7146 26.0076 22.5474 25.9553 22.3694C25.9029 22.1915 25.8925 22.0062 25.9244 21.8247C25.9564 21.6432 26.0302 21.469 26.1415 21.3125C26.6679 20.5265 27.4802 19.9123 28.4524 19.565C29.4247 19.2178 30.5025 19.157 31.5188 19.392C32.5352 19.6269 33.4333 20.1446 34.074 20.8647C34.7147 21.5849 35.0622 22.4672 35.0625 23.375C35.0659 24.2717 34.727 25.1445 34.0983 25.8586Z" fill="black"/>
</svg>
