<svg width="24" height="24" viewBox="0 0 24 24" fill="none" xmlns="http://www.w3.org/2000/svg">
<path d="M24 12C24.0001 14.8255 23.0032 17.5605 21.1849 19.7232C19.3665 21.8859 16.8433 23.3376 14.0597 23.8225C11.2761 24.3075 8.41064 23.7947 5.96801 22.3744C3.52539 20.9541 1.66229 18.7174 0.706855 16.0583C-0.248576 13.3992 -0.235048 10.4883 0.745054 7.83815C1.72516 5.18804 3.60897 2.96878 6.06468 1.57124C8.5204 0.173701 11.3905 -0.312468 14.1695 0.198363C16.9485 0.709194 19.4581 2.18426 21.2563 4.36375C21.3455 4.4642 21.4136 4.58161 21.4565 4.70897C21.4994 4.83632 21.5162 4.97102 21.5058 5.10501C21.4955 5.23899 21.4582 5.36952 21.3963 5.48879C21.3344 5.60806 21.2491 5.71363 21.1455 5.79918C21.0418 5.88474 20.922 5.94854 20.7932 5.98675C20.6643 6.02497 20.5291 6.03683 20.3956 6.02162C20.2621 6.00641 20.133 5.96445 20.0161 5.89824C19.8991 5.83202 19.7967 5.74292 19.715 5.63625C18.2442 3.8529 16.201 2.63417 13.933 2.18739C11.665 1.74061 9.31221 2.09338 7.27495 3.18569C5.23769 4.27799 3.64178 6.04236 2.7587 8.17864C1.87562 10.3149 1.75992 12.6912 2.43128 14.9031C3.10265 17.1151 4.51961 19.0262 6.44111 20.3112C8.36261 21.5963 10.67 22.176 12.9707 21.9516C15.2714 21.7273 17.4233 20.7128 19.0604 19.0808C20.6975 17.4488 21.7186 15.3 21.95 13H12C11.7348 13 11.4804 12.8946 11.2929 12.7071C11.1054 12.5196 11 12.2652 11 12C11 11.7348 11.1054 11.4804 11.2929 11.2929C11.4804 11.1054 11.7348 11 12 11H23C23.2652 11 23.5196 11.1054 23.7071 11.2929C23.8946 11.4804 24 11.7348 24 12Z" fill="#59798D"/>
</svg>
