<svg width="38" height="32" viewBox="0 0 38 32" fill="none" xmlns="http://www.w3.org/2000/svg">
<path d="M18.9932 1.25266C19.4286 1.2527 19.8501 1.39516 20.1953 1.655L20.3389 1.77316C20.3422 1.77636 20.3453 1.7798 20.3486 1.78293V1.78391L32.8486 13.5779L32.8535 13.5818C33.0573 13.7691 33.2198 13.9972 33.3311 14.2507C33.4423 14.5041 33.5 14.7777 33.5 15.0544V29.9997H36.5C36.6988 29.9997 36.8896 30.0789 37.0303 30.2195C37.1709 30.36 37.2499 30.5509 37.25 30.7497C37.25 30.9486 37.1708 31.1394 37.0303 31.28C36.8896 31.4207 36.6989 31.4997 36.5 31.4997H1.5C1.30109 31.4997 1.11038 31.4207 0.969727 31.28C0.82916 31.1394 0.75 30.9486 0.75 30.7497C0.750072 30.5509 0.829139 30.36 0.969727 30.2195C1.11037 30.0789 1.30115 29.9997 1.5 29.9997H4.5V15.0544L4.51074 14.8474C4.53212 14.6419 4.58558 14.4407 4.66895 14.2507C4.75232 14.0607 4.86418 13.8851 5.00098 13.7302L5.14648 13.5818L5.15137 13.5779L17.6367 1.78391L17.6426 1.77902L17.6475 1.77414L17.6514 1.76926C18.019 1.43676 18.4973 1.25266 18.9932 1.25266ZM16 29.9997H22V21.4997H16V29.9997ZM32.002 14.8308L31.8379 14.6814L31.8203 14.6657L19.3428 2.88644L19 2.56223L18.6562 2.88644L6.18066 14.6687L6.16406 14.6843L6 14.8337V29.9997H14.5V21.9997C14.5001 21.4694 14.7109 20.9607 15.0859 20.5857C15.461 20.2107 15.9696 19.9997 16.5 19.9997H21.5C22.0304 19.9997 22.539 20.2107 22.9141 20.5857C23.2891 20.9607 23.4999 21.4694 23.5 21.9997V29.9997H32.002V14.8308Z" fill="black" stroke="black"/>
</svg>
