<svg width="72" height="62" viewBox="0 0 72 62" fill="none" xmlns="http://www.w3.org/2000/svg">
<path d="M66.1715 27.7437C65.9547 26.6138 64.9665 25.7967 63.8159 25.7961H61.4987L61.3283 24.7749C61.1583 23.7492 60.3502 22.9478 59.3231 22.7865C59.0951 22.7505 58.8647 22.7265 58.6379 22.6953C59.0309 20.8607 58.7044 18.9453 57.7259 17.3445C58.2429 16.0034 58.1464 14.5032 57.4619 13.2395C56.7774 11.9757 55.5736 11.0753 54.1679 10.7757C53.2693 5.96605 49.0851 2.46993 44.1923 2.44047C44.0723 2.44047 43.9655 2.45607 43.8515 2.45967C43.0697 1.23188 41.7808 0.417026 40.3364 0.237371C38.8919 0.0577162 37.4427 0.532007 36.3839 1.53087C35.0502 0.663886 33.4939 0.201672 31.9031 0.200067C29.34 0.210556 26.9243 1.40024 25.3535 3.42567C23.6094 2.91706 21.7286 3.22935 20.2424 4.27432C18.7562 5.31929 17.8259 6.98349 17.7143 8.79687C15.8823 9.56696 14.6903 11.36 14.6891 13.3473C14.6929 13.6917 14.7331 14.0349 14.8091 14.3709C13.189 16.8133 12.7657 19.8592 13.6583 22.6509C13.3367 22.6953 13.0079 22.7349 12.6983 22.7805C11.6659 22.9362 10.8506 23.738 10.6775 24.7677L10.5071 25.7925H8.18394C7.03536 25.7933 6.04835 26.6077 5.82954 27.7353L0.574742 54.7137C0.369524 55.7702 0.64781 56.8632 1.33332 57.6929C2.01883 58.5227 3.03964 59.0022 4.11594 59.0001H29.1407C30.1343 60.6393 33.1535 61.4001 35.9999 61.4001C38.8163 61.4001 41.8067 60.6573 42.8291 59.0001H67.8839C68.96 59.0022 69.9806 58.5228 70.666 57.6933C71.3515 56.8639 71.63 55.7712 71.4251 54.7149L66.1715 27.7437ZM18.3179 15.5193C17.3436 14.9334 16.8786 13.7705 17.1804 12.6744C17.4823 11.5783 18.4771 10.8173 19.6139 10.8129C20.4096 10.8105 21.1584 11.1887 21.6287 11.8305C21.8843 12.1747 22.304 12.3565 22.7299 12.3074C23.1558 12.2582 23.5231 11.9856 23.6935 11.5922C23.8639 11.1988 23.8115 10.7443 23.5559 10.4001C22.7411 9.311 21.5063 8.61433 20.1527 8.48007C20.5105 6.79949 21.9925 5.5964 23.7107 5.59167C23.8572 5.59909 24.003 5.61512 24.1475 5.63967C24.051 5.88568 23.9669 6.1364 23.8955 6.39087C23.7462 7.02609 24.1318 7.66422 24.7636 7.82739C25.3954 7.99057 26.0418 7.61897 26.2187 6.99087C26.3552 6.46345 26.5648 5.95774 26.8415 5.48847C27.906 3.7052 29.8264 2.60935 31.9031 2.60007C33.0334 2.60507 34.1378 2.93861 35.0819 3.56007C34.9021 4.0654 34.8068 4.59693 34.7999 5.13327C34.7999 5.79601 35.3372 6.33327 35.9999 6.33327C36.6627 6.33327 37.1999 5.79601 37.1999 5.13327C37.1999 3.73919 38.3301 2.60907 39.7241 2.60907C41.1182 2.60907 42.2483 3.73919 42.2483 5.13327C42.2483 5.79601 42.7856 6.33327 43.4483 6.33327C44.1111 6.33327 44.6483 5.79601 44.6483 5.13327C44.6483 5.04087 44.6255 4.95327 44.6207 4.86087C48.0568 5.07287 50.9461 7.51529 51.7271 10.8681C51.1674 11.031 50.6414 11.2932 50.1743 11.6421C49.8314 11.8993 49.6517 12.32 49.703 12.7456C49.7542 13.1712 50.0287 13.5372 50.423 13.7056C50.8172 13.874 51.2714 13.8193 51.6143 13.5621C52.5733 12.8521 53.8979 12.9087 54.7928 13.6979C55.6876 14.4871 55.9093 15.7943 55.3247 16.8345C55.0635 17.2938 54.6666 17.661 54.1883 17.8857C53.6868 18.1285 53.4185 18.6846 53.5404 19.2283C53.6623 19.772 54.1424 20.1602 54.6995 20.1657C54.8755 20.1659 55.0493 20.127 55.2083 20.0517C55.5264 19.8975 55.8269 19.7097 56.1047 19.4913C56.7251 21.2547 56.336 23.2161 55.0895 24.6093L55.0607 24.6393C53.4974 26.3328 51.0036 26.7905 48.9407 25.7625C48.7387 25.6558 48.5446 25.5346 48.3599 25.4001C49.2438 24.1609 49.3659 22.5332 48.6767 21.1761C48.4838 20.793 48.1012 20.542 47.673 20.5175C47.2448 20.4931 46.8361 20.6989 46.6008 21.0575C46.3655 21.4161 46.3394 21.873 46.5323 22.2561C46.9269 23.0492 46.6808 24.0117 45.9539 24.5181C45.5271 24.8023 44.9998 24.8921 44.5029 24.7654C44.006 24.6387 43.5861 24.3072 43.3475 23.8533C43.1557 23.4698 42.7738 23.2178 42.3458 23.1922C41.9178 23.1666 41.5086 23.3713 41.2724 23.7292C41.0362 24.0871 41.0089 24.5438 41.2007 24.9273C41.9045 26.3479 43.3545 27.2451 44.9399 27.2409C45.4561 27.2374 45.967 27.1368 46.4459 26.9445C46.8745 27.3197 47.3467 27.642 47.8523 27.9045C49.5626 28.791 51.5514 28.9748 53.3951 28.4169C52.2093 30.0361 50.4345 31.1243 48.4535 31.4469C47.8373 31.5472 47.4009 32.1033 47.4501 32.7258C47.4993 33.3482 48.0176 33.829 48.6419 33.8313C48.7058 33.8312 48.7696 33.8264 48.8327 33.8169C49.5635 33.6904 50.2776 33.4818 50.9615 33.1953C51.3312 33.8489 51.6313 34.5394 51.8567 35.2557C51.898 35.3807 51.9191 35.5116 51.9191 35.6433C51.9188 36.1619 51.6091 36.6303 51.1319 36.8337C50.58 37.0472 49.9533 36.8787 49.5827 36.4173C48.6534 35.3259 47.4365 34.5173 46.0703 34.0833C43.4771 33.2145 42.4763 32.4381 42.0515 31.5933C42.6742 31.5156 43.2894 31.3872 43.8911 31.2093C44.301 31.0832 44.6125 30.7481 44.7082 30.3301C44.804 29.9122 44.6695 29.4749 44.3554 29.1829C44.0414 28.891 43.5954 28.7888 43.1855 28.9149C42.5122 29.1215 41.8171 29.2491 41.1143 29.2953C39.7603 29.4011 38.4001 29.1959 37.1375 28.6953C36.6635 28.5104 36.1244 28.6446 35.7923 29.0301C34.0452 31.037 31.0549 31.3781 28.9006 29.8162C26.7464 28.2543 26.1409 25.3062 27.5051 23.0217C27.7261 22.6528 27.7336 22.194 27.5246 21.8181C27.3156 21.4423 26.922 21.2064 26.492 21.1995C26.062 21.1926 25.6609 21.4156 25.4399 21.7845C25.1536 22.2717 24.9234 22.7898 24.7535 23.3289C23.8086 23.2792 23.0634 22.5062 23.0483 21.5601V21.5301C23.0477 21.2134 22.9206 20.9102 22.6952 20.6877C22.4699 20.4653 22.165 20.3421 21.8483 20.3457C21.1827 20.3523 20.647 20.8944 20.6483 21.5601C20.6537 23.6882 22.2586 25.4719 24.3743 25.7013C24.3786 26.1035 24.4152 26.5048 24.4835 26.9013C21.8042 27.481 19.0252 26.5179 17.2792 24.4045C15.5332 22.2911 15.1118 19.3803 16.1867 16.8585C16.4552 17.1301 16.7549 17.3689 17.0795 17.5701C17.6464 17.9021 18.3749 17.7166 18.714 17.1539C19.053 16.5911 18.8765 15.8604 18.3179 15.5145V15.5193ZM13.0379 25.1589C13.5911 25.0773 14.1623 25.0053 14.7299 24.9309C16.9487 28.4764 21.1921 30.198 25.2539 29.2005C26.3453 31.2719 28.3396 32.7164 30.648 33.1077C32.9565 33.4989 35.3154 32.7922 37.0283 31.1961C37.8438 31.4393 38.6838 31.5914 39.5327 31.6497C40.1123 33.8481 41.7875 35.1801 45.3071 36.3597C46.256 36.6571 47.1024 37.2146 47.7503 37.9689C48.4707 38.8255 49.5303 39.3233 50.6495 39.3309C51.139 39.3307 51.6235 39.2319 52.0739 39.0405C53.4342 38.4591 54.3166 37.1225 54.3167 35.6433C54.3178 35.2575 54.2562 34.8741 54.1343 34.5081C53.8645 33.6602 53.5091 32.842 53.0735 32.0661C55.1141 30.5992 56.5356 28.4252 57.0611 25.9677C57.3167 25.664 57.5478 25.3406 57.7523 25.0005C58.1543 25.0521 58.5563 25.0977 58.9607 25.1649L63.2927 51.2217C54.825 48.3941 45.6677 48.3941 37.1999 51.2217V36.2001C37.1999 35.5373 36.6627 35.0001 35.9999 35.0001C35.3372 35.0001 34.7999 35.5373 34.7999 36.2001V51.2265C26.3331 48.3963 17.1761 48.3929 8.70714 51.2169L13.0379 25.1589ZM3.18114 56.1585C2.95439 55.8846 2.86196 55.5236 2.92914 55.1745L8.18394 28.1961H10.1039L6.33834 50.8269C6.20589 51.6506 6.5092 52.4842 7.14002 53.0302C7.77084 53.5762 8.63932 53.7569 9.43554 53.5077C15.8327 51.4351 22.6481 51.0027 29.2559 52.2501L28.8983 56.6001H4.11594C3.75392 56.6003 3.41086 56.4383 3.18114 56.1585ZM35.9999 59.0001C33.1091 59.0001 31.4507 58.1457 31.2071 57.7653L31.6199 52.7853C32.9394 53.1138 34.2307 53.5468 35.4815 54.0801C35.6433 54.158 35.8204 54.199 35.9999 54.2001C36.18 54.1998 36.3576 54.1588 36.5195 54.0801C37.7696 53.5436 39.0605 53.1078 40.3799 52.7769L40.7927 57.7641C40.5491 58.1457 38.8907 59.0001 35.9999 59.0001ZM68.8187 56.1585C68.589 56.4383 68.246 56.6003 67.8839 56.6001H43.1051L42.7451 52.2417C49.3566 50.9968 56.1749 51.433 62.5739 53.5101C63.37 53.756 64.2366 53.5728 64.865 53.0257C65.4934 52.4787 65.7942 51.6456 65.6603 50.8233L61.8983 28.1973H63.8183L69.0743 55.1733C69.1409 55.5234 69.0471 55.8849 68.8187 56.1585Z" fill="black"/>
</svg>

