<svg width="45" height="45" viewBox="0 0 45 45" fill="none" xmlns="http://www.w3.org/2000/svg">
<path d="M22.5 4.21875C18.8843 4.21875 15.3498 5.29093 12.3435 7.2997C9.33715 9.30847 6.994 12.1636 5.61034 15.5041C4.22667 18.8445 3.86464 22.5203 4.57003 26.0665C5.27541 29.6127 7.01653 32.8701 9.57321 35.4268C12.1299 37.9835 15.3873 39.7246 18.9335 40.43C22.4797 41.1354 26.1555 40.7733 29.4959 39.3897C32.8364 38.006 35.6915 35.6629 37.7003 32.6565C39.7091 29.6502 40.7813 26.1157 40.7813 22.5C40.7761 17.6531 38.8484 13.0061 35.4212 9.57886C31.9939 6.15157 27.3469 4.22387 22.5 4.21875ZM22.5 37.9688C19.4406 37.9688 16.4499 37.0615 13.906 35.3618C11.3622 33.6621 9.37954 31.2462 8.20875 28.4196C7.03795 25.5931 6.73162 22.4828 7.32849 19.4822C7.92535 16.4816 9.39861 13.7253 11.562 11.5619C13.7253 9.3986 16.4816 7.92534 19.4822 7.32848C22.4828 6.73161 25.5931 7.03795 28.4196 8.20874C31.2462 9.37953 33.6621 11.3622 35.3618 13.906C37.0615 16.4498 37.9688 19.4406 37.9688 22.5C37.9641 26.6011 36.3329 30.533 33.4329 33.4329C30.533 36.3329 26.6011 37.9641 22.5 37.9688ZM22.5 12.6562C21.1096 12.6565 19.7504 13.0691 18.5944 13.8417C17.4384 14.6143 16.5375 15.7124 16.0054 16.997C15.4733 18.2816 15.3341 19.6951 15.6053 21.0588C15.8765 22.4225 16.5459 23.6753 17.5289 24.6586L15.6199 29.4539C15.4925 29.7738 15.4454 30.12 15.4826 30.4623C15.5198 30.8046 15.6402 31.1326 15.8334 31.4177C16.0265 31.7027 16.2865 31.9361 16.5906 32.0976C16.8948 32.259 17.2338 32.3435 17.5781 32.3438H27.4219C27.7662 32.3435 28.1052 32.259 28.4094 32.0976C28.7135 31.9361 28.9735 31.7027 29.1666 31.4177C29.3598 31.1326 29.4802 30.8046 29.5174 30.4623C29.5546 30.12 29.5075 29.7738 29.3801 29.4539L27.4711 24.6586C28.4541 23.6753 29.1236 22.4225 29.3947 21.0588C29.6659 19.6951 29.5267 18.2816 28.9946 16.997C28.4626 15.7124 27.5616 14.6143 26.4056 13.8417C25.2496 13.0691 23.8904 12.6565 22.5 12.6562ZM24.4881 24.7676L26.3848 29.5312H18.6152L20.5119 24.7676C20.6277 24.4768 20.6433 24.1558 20.556 23.8552C20.4688 23.5546 20.2838 23.2918 20.0303 23.1082C19.3071 22.586 18.7681 21.8481 18.4906 21.0004C18.2131 20.1527 18.2114 19.2388 18.4858 18.3901C18.7602 17.5414 19.2966 16.8015 20.0178 16.2767C20.739 15.7519 21.608 15.4692 22.5 15.4692C23.392 15.4692 24.261 15.7519 24.9822 16.2767C25.7035 16.8015 26.2398 17.5414 26.5142 18.3901C26.7886 19.2388 26.7869 20.1527 26.5094 21.0004C26.2319 21.8481 25.6929 22.586 24.9697 23.1082C24.7162 23.2918 24.5312 23.5546 24.444 23.8552C24.3568 24.1558 24.3723 24.4768 24.4881 24.7676Z" fill="#040404"/>
</svg>
