<?xml version="1.0" standalone="no"?>
<!DOCTYPE svg PUBLIC "-//W3C//DTD SVG 20010904//EN"
 "http://www.w3.org/TR/2001/REC-SVG-20010904/DTD/svg10.dtd">
<svg version="1.0" xmlns="http://www.w3.org/2000/svg"
 width="423.000000pt" height="221.000000pt" viewBox="0 0 423.000000 221.000000"
 preserveAspectRatio="xMidYMid meet">

<g transform="translate(0.000000,221.000000) scale(0.100000,-0.100000)"
fill="#000000" stroke="none">
<path d="M1588 2025 c-74 -27 -200 -98 -215 -122 -9 -13 -18 -43 -20 -67 -5
-38 -2 -45 23 -65 26 -21 29 -29 29 -84 0 -50 3 -62 17 -65 9 -2 20 -12 23
-22 3 -10 12 -21 20 -24 8 -3 12 -12 9 -19 -3 -10 8 -20 36 -31 39 -15 40 -17
26 -39 -17 -27 -66 -169 -66 -191 0 -41 -33 -8 -83 83 -29 53 -36 60 -41 43
-10 -31 -36 -16 -36 22 0 28 -14 42 -145 146 -190 150 -188 150 -249 17 -38
-83 -44 -102 -32 -111 108 -86 225 -191 217 -194 -6 -2 -11 -14 -11 -26 0 -15
9 -25 30 -33 17 -6 30 -18 30 -26 0 -8 12 -23 27 -33 l28 -18 -37 -8 c-47 -9
-336 -137 -600 -265 -109 -52 -204 -93 -212 -90 -7 3 -44 26 -82 52 -63 44
-69 46 -81 29 -7 -10 -13 -30 -13 -45 0 -34 67 -135 123 -185 23 -21 41 -45
39 -52 -9 -38 55 -56 94 -27 13 10 33 13 66 9 40 -6 55 -2 105 25 32 18 83 38
115 46 31 8 95 33 143 55 48 22 95 40 105 40 10 0 64 16 119 35 l102 36 57
-58 c31 -32 99 -93 149 -135 109 -90 119 -93 328 -93 214 1 245 16 301 147 18
40 37 72 43 71 25 -6 30 41 27 243 -3 168 -8 226 -24 294 -12 47 -24 106 -27
132 -7 45 -12 51 -99 122 -50 41 -104 80 -120 87 -25 12 -27 16 -22 53 19 131
18 139 -8 210 -33 86 -39 94 -101 122 -57 27 -57 27 -107 9z"/>
<path d="M2551 1978 c-50 -25 -92 -78 -121 -155 -34 -91 -58 -131 -85 -140
-24 -8 -25 -9 -9 -31 8 -12 29 -28 46 -35 l30 -12 -70 -39 c-107 -58 -129 -87
-147 -182 -8 -43 -21 -110 -29 -149 -10 -45 -15 -131 -16 -240 -2 -249 -3
-234 23 -244 15 -6 31 -31 50 -79 40 -98 65 -119 168 -139 73 -14 109 -14 276
-4 171 10 197 14 241 36 27 14 61 25 74 25 14 0 37 13 53 30 16 17 34 30 41
30 6 0 19 17 27 38 8 20 26 47 40 59 14 12 31 39 37 60 9 28 23 45 55 64 l43
27 48 -50 c55 -57 71 -66 197 -114 51 -19 118 -47 149 -61 l57 -25 3 -52 3
-51 163 -3 c132 -2 162 0 162 11 0 24 -36 48 -102 68 -34 11 -79 30 -99 43
-41 27 -374 372 -402 416 -12 19 -31 33 -55 39 -106 25 -176 34 -259 32 -93
-1 -114 7 -73 29 12 6 25 22 30 36 6 14 18 24 29 24 22 0 34 33 17 50 -8 8 -7
14 6 24 9 6 62 50 117 96 81 68 101 89 97 105 -3 12 -24 60 -46 109 -34 74
-43 86 -55 76 -8 -7 -15 -10 -15 -6 0 14 -73 -34 -188 -124 -109 -85 -121 -98
-121 -127 -1 -39 -19 -53 -37 -28 -8 10 -15 17 -16 14 -2 -2 -16 -30 -33 -62
-16 -32 -40 -67 -52 -79 l-22 -21 -6 29 c-13 59 -58 175 -77 200 -27 33 -12
49 42 45 38 -2 40 -1 56 37 8 22 22 43 30 46 9 4 14 21 14 56 0 32 8 66 21 92
18 36 20 47 10 79 -13 43 -75 103 -135 130 -56 25 -130 24 -185 -3z"/>
</g>
</svg>
