<svg width="87" height="74" viewBox="0 0 87 74" fill="none" xmlns="http://www.w3.org/2000/svg">
<ellipse cx="43.2292" cy="36.5079" rx="43.2292" ry="36.5079" fill="#F5F7FA"/>
<g clip-path="url(#clip0_195_224)">
<path d="M42.2643 54.0318C38.5414 54.0318 35.5098 51.4732 35.5098 48.3274C35.5098 47.6976 36.115 47.1865 36.8607 47.1865C37.6064 47.1865 38.2116 47.6976 38.2116 48.3274C38.2116 50.2153 40.0308 51.75 42.2643 51.75C44.4978 51.75 46.3171 50.2153 46.3171 48.3274C46.3171 47.6976 46.9223 47.1865 47.668 47.1865C48.4137 47.1865 49.0189 47.6976 49.0189 48.3274C49.0189 51.4732 45.9876 54.0318 42.2643 54.0318Z" fill="#060606"/>
<path d="M57.1244 49.4684H27.4043C25.6662 49.4684 24.2523 48.2743 24.2523 46.8064C24.2523 46.0274 24.654 45.2898 25.3546 44.7831C25.3997 44.7497 25.4482 44.7194 25.4987 44.6918C28.1428 42.7432 29.656 39.9397 29.656 36.9795V32.7355C29.656 26.864 35.3136 22.0874 42.2644 22.0874C42.5526 22.0874 42.8643 22.0919 43.1526 22.1331C43.889 22.2364 44.3864 22.8252 44.2637 23.4458C44.1413 24.0664 43.4316 24.4864 42.7093 24.3828C42.5652 24.363 42.4068 24.3691 42.2644 24.3691C36.8033 24.3691 32.3578 28.1218 32.3578 32.7355V36.9795C32.3578 40.6547 30.4502 44.1322 27.1289 46.5187C27.1019 46.5371 27.0785 46.5538 27.0495 46.5705C27.001 46.6223 26.9541 46.7014 26.9541 46.8064C26.9541 47.0131 27.1596 47.1866 27.4043 47.1866H57.1244C57.3695 47.1866 57.5749 47.0131 57.5749 46.8064C57.5749 46.6997 57.5281 46.6223 57.4776 46.5705C57.4506 46.5538 57.4272 46.5371 57.4001 46.5187C54.0769 44.1305 52.1713 40.6547 52.1713 36.9795V35.3216C52.1713 34.6919 52.7765 34.1808 53.5222 34.1808C54.2679 34.1808 54.8731 34.6919 54.8731 35.3216V36.9795C54.8731 39.9414 56.3879 42.7462 59.0357 44.6965C59.0841 44.7238 59.131 44.7528 59.1742 44.7848C59.875 45.2898 60.2768 46.0274 60.2768 46.8064C60.2768 48.2743 58.8628 49.4684 57.1244 49.4684Z" fill="#060606"/>
<path d="M54.8731 32.7355C49.9071 32.7355 45.8669 29.3237 45.8669 25.1298C45.8669 20.936 49.9071 17.5239 54.8731 17.5239C59.8391 17.5239 63.879 20.936 63.879 25.1298C63.879 29.3237 59.8391 32.7355 54.8731 32.7355ZM54.8731 19.8057C51.3966 19.8057 48.5688 22.1938 48.5688 25.1298C48.5688 28.0656 51.3966 30.4537 54.8731 30.4537C58.3494 30.4537 61.1772 28.0656 61.1772 25.1298C61.1772 22.1938 58.3494 19.8057 54.8731 19.8057Z" fill="#060606"/>
</g>
<defs>
<clipPath id="clip0_195_224">
<rect width="43.2292" height="36.5079" fill="white" transform="translate(22.4792 17.5239)"/>
</clipPath>
</defs>
</svg>
