<svg width="40" height="40" viewBox="0 0 40 40" fill="none" xmlns="http://www.w3.org/2000/svg">
<path d="M35.4314 10.7813C35.3556 10.5939 35.2355 10.4276 35.0813 10.2969C34.9271 10.1661 34.7435 10.0747 34.5463 10.0304C34.349 9.98616 34.1439 9.99042 33.9487 10.0428C33.7534 10.0952 33.5738 10.1942 33.4252 10.3313L27.1283 16.1422L24.4361 15.5641L23.858 12.8719L29.6689 6.57503C29.806 6.42642 29.905 6.24679 29.9574 6.05153C30.0098 5.85627 30.014 5.65122 29.9698 5.45395C29.9256 5.25668 29.8341 5.07309 29.7033 4.91892C29.5726 4.76475 29.4063 4.6446 29.2189 4.56878C27.511 3.87789 25.6596 3.61703 23.8272 3.80912C21.9949 4.0012 20.2378 4.64036 18.7103 5.67042C17.1828 6.70048 15.9317 8.08992 15.0668 9.71667C14.2019 11.3434 13.7498 13.1577 13.7502 15C13.7482 16.5558 14.0673 18.0952 14.6877 19.5219L5.27987 27.6563C5.25643 27.675 5.23456 27.6969 5.21268 27.7172C4.27489 28.655 3.74805 29.9269 3.74805 31.2532C3.74805 31.9098 3.87739 32.5601 4.12869 33.1668C4.37999 33.7735 4.74833 34.3247 5.21268 34.7891C5.67703 35.2534 6.22828 35.6218 6.83498 35.8731C7.44168 36.1244 8.09193 36.2537 8.74862 36.2537C10.0749 36.2537 11.3468 35.7269 12.2846 34.7891C12.3049 34.7688 12.3267 34.7453 12.3455 34.7235L20.4783 25.3125C22.1915 26.0646 24.0652 26.3774 25.9297 26.2228C27.7943 26.0683 29.5909 25.4511 31.1568 24.4272C32.7227 23.4033 34.0086 22.005 34.8979 20.3589C35.7873 18.7129 36.2521 16.871 36.2502 15C36.2526 13.5541 35.9746 12.1214 35.4314 10.7813ZM25.0002 23.75C23.5206 23.748 22.0656 23.3717 20.7705 22.6563C20.5196 22.5177 20.2287 22.4695 19.9465 22.5199C19.6643 22.5702 19.408 22.716 19.2205 22.9328L10.4861 33.0485C10.0135 33.4975 9.38409 33.7442 8.73218 33.7358C8.08028 33.7275 7.45743 33.4648 6.99642 33.0038C6.53542 32.5428 6.27274 31.9199 6.26439 31.268C6.25605 30.6161 6.50269 29.9867 6.95174 29.5141L17.0596 20.7813C17.2768 20.5937 17.4228 20.3371 17.4732 20.0546C17.5235 19.772 17.4751 19.4808 17.3361 19.2297C16.5393 17.7885 16.1653 16.1517 16.2573 14.5075C16.3492 12.8633 16.9032 11.2783 17.8557 9.93495C18.8082 8.59156 20.1205 7.54424 21.6417 6.91338C23.1629 6.28253 24.8312 6.09376 26.4549 6.36878L21.5799 11.6516C21.4442 11.7987 21.3459 11.9763 21.2931 12.1693C21.2404 12.3624 21.2348 12.5653 21.2767 12.761L22.1611 16.875C22.2117 17.1103 22.3291 17.326 22.4993 17.4962C22.6695 17.6664 22.8852 17.7838 23.1205 17.8344L27.2377 18.7188C27.4334 18.7607 27.6362 18.7551 27.8293 18.7024C28.0223 18.6496 28.1999 18.5513 28.3471 18.4157L33.6299 13.5407C33.8405 14.7954 33.7752 16.0809 33.4387 17.3078C33.1021 18.5347 32.5023 19.6736 31.681 20.6453C30.8597 21.6169 29.8366 22.398 28.6829 22.9342C27.5291 23.4703 26.2724 23.7487 25.0002 23.75Z" fill="#040404"/>
</svg>
