<svg width="40" height="40" viewBox="0 0 40 40" fill="none" xmlns="http://www.w3.org/2000/svg">
<path d="M21.467 3.75939C21.1217 3.72928 20.7739 3.7713 20.4457 3.88279C20.1175 3.99428 19.816 4.1728 19.5605 4.40701C19.305 4.64122 19.101 4.92601 18.9614 5.24329C18.8218 5.56056 18.7498 5.9034 18.7498 6.25002V12.6047C18.7455 13.1944 18.9515 13.7662 19.331 14.2176C19.7105 14.6689 20.2384 14.9702 20.8201 15.0672C21.7494 15.2231 22.6157 15.6385 23.3193 16.2654C24.0228 16.8923 24.5348 17.7052 24.7963 18.6105C25.0579 19.5158 25.0583 20.4766 24.7975 21.382C24.5367 22.2875 24.0253 23.1009 23.3224 23.7284C22.6194 24.3559 21.7534 24.772 20.8242 24.9287C19.895 25.0854 18.9405 24.9763 18.0706 24.614C17.2007 24.2518 16.4509 23.6511 15.9076 22.8812C15.3643 22.1113 15.0496 21.2035 14.9998 20.2625C14.9357 18.9781 15.1982 17.9188 15.781 17.0969C16.1236 16.6191 16.2851 16.0351 16.2367 15.4492C16.1883 14.8632 15.9332 14.3136 15.517 13.8985L11.2013 9.48127C10.9553 9.23526 10.6607 9.04331 10.3363 8.91768C10.0119 8.79206 9.6648 8.73552 9.31728 8.7517C8.96976 8.76788 8.62944 8.85641 8.31809 9.01163C8.00675 9.16685 7.73122 9.38535 7.50915 9.65314C4.90442 12.775 3.56986 16.7627 3.77077 20.8235C3.97168 24.8843 5.69336 28.7208 8.59352 31.5703C11.626 34.5789 15.728 36.2619 19.9998 36.25H20.2326C24.4584 36.1781 28.491 34.4673 31.4794 31.4786C34.4678 28.4899 36.1783 24.4571 36.2498 20.2313C36.367 11.7469 29.8732 4.51252 21.467 3.75939ZM9.42477 11.2406L13.7388 15.6453V15.6547C13.0985 16.5737 12.6963 17.6373 12.5685 18.75H6.30602C6.55636 15.9876 7.64449 13.3676 9.42477 11.2406ZM6.30758 21.25H12.6045C12.8637 22.7859 13.5947 24.2029 14.6959 25.3044C15.7971 26.4059 17.214 27.1373 18.7498 27.3969V33.6938C15.5483 33.4013 12.5505 31.9963 10.2774 29.7229C8.00431 27.4495 6.59966 24.4515 6.30758 21.25ZM29.7091 29.7094C27.445 31.9893 24.4498 33.3984 21.2498 33.6891V27.3969C22.6983 27.1558 24.043 26.4908 25.1138 25.486C26.1376 24.5321 26.8741 23.311 27.2401 21.9605C27.6062 20.61 27.5871 19.184 27.1851 17.8438C26.7831 16.5036 26.0143 15.3025 24.9654 14.3764C23.9165 13.4503 22.6295 12.8361 21.2498 12.6031V6.25002C28.3623 6.88752 33.8545 13.0125 33.7498 20.1953C33.7007 23.7734 32.2499 27.1895 29.7091 29.7094Z" fill="#040404"/>
</svg>
