<svg width="44" height="45" viewBox="0 0 44 45" fill="none" xmlns="http://www.w3.org/2000/svg">
<path d="M29.8478 17.2863C29.9757 17.4169 30.0771 17.572 30.1463 17.7427C30.2155 17.9135 30.2511 18.0964 30.2511 18.2812C30.2511 18.4661 30.2155 18.649 30.1463 18.8198C30.0771 18.9905 29.9757 19.1456 29.8478 19.2762L20.2228 29.1199C20.0951 29.2507 19.9435 29.3544 19.7766 29.4252C19.6096 29.4959 19.4307 29.5324 19.25 29.5324C19.0693 29.5324 18.8904 29.4959 18.7235 29.4252C18.5565 29.3544 18.4049 29.2507 18.2772 29.1199L14.1522 24.9012C13.8942 24.6373 13.7492 24.2794 13.7492 23.9062C13.7492 23.5331 13.8942 23.1752 14.1522 22.9113C14.4102 22.6475 14.7601 22.4992 15.125 22.4992C15.4899 22.4992 15.8398 22.6475 16.0978 22.9113L19.25 26.1369L27.9022 17.2863C28.0299 17.1556 28.1815 17.0519 28.3485 16.9811C28.5154 16.9103 28.6943 16.8739 28.875 16.8739C29.0557 16.8739 29.2346 16.9103 29.4016 16.9811C29.5685 17.0519 29.7201 17.1556 29.8478 17.2863ZM39.875 22.5C39.875 26.1157 38.8267 29.6502 36.8625 32.6565C34.8984 35.6629 32.1067 38.006 28.8405 39.3897C25.5742 40.7733 21.9802 41.1354 18.5128 40.43C15.0454 39.7246 11.8603 37.9835 9.36047 35.4268C6.86061 32.8701 5.15818 29.6127 4.46847 26.0665C3.77876 22.5203 4.13274 18.8445 5.48566 15.5041C6.83858 12.1636 9.12966 9.30847 12.0692 7.2997C15.0087 5.29093 18.4647 4.21875 22 4.21875C26.7392 4.22387 31.2829 6.15157 34.634 9.57886C37.9851 13.0061 39.87 17.6531 39.875 22.5ZM37.125 22.5C37.125 19.4406 36.2379 16.4498 34.576 13.906C32.914 11.3622 30.5518 9.37953 27.7881 8.20874C25.0244 7.03795 21.9832 6.73161 19.0493 7.32848C16.1153 7.92534 13.4203 9.3986 11.305 11.5619C9.18975 13.7253 7.74923 16.4816 7.16563 19.4822C6.58203 22.4828 6.88155 25.5931 8.02633 28.4196C9.17111 31.2462 11.1097 33.6621 13.597 35.3618C16.0843 37.0615 19.0086 37.9688 22 37.9688C26.01 37.9641 29.8545 36.3329 32.69 33.4329C35.5255 30.533 37.1205 26.6011 37.125 22.5Z" fill="#040404"/>
</svg>
